<?xml version="1.0" encoding="UTF-8"?>
<svg width="20px" height="20px" viewBox="0 0 20 20" version="1.1" xmlns="http://www.w3.org/2000/svg" xmlns:xlink="http://www.w3.org/1999/xlink">
    <!-- Generator: Sketch 47.1 (45422) - http://www.bohemiancoding.com/sketch -->
    <title>20x20/image--dark</title>
    <desc>Created with Sketch.</desc>
    <defs></defs>
    <g id="Symbols" stroke="none" stroke-width="1" fill="none" fill-rule="evenodd">
        <g id="20x20/image--dark">
            <g id="20x20/customize--grey">
                <rect id="Rectangle" x="0" y="0" width="20" height="20"></rect>
            </g>
            <path d="M3.75,5.00585866 L3.75,14.9941413 C3.75,15.6883258 4.31186644,16.25 5.00585866,16.25 L14.9941413,16.25 C15.6883258,16.25 16.25,15.6881336 16.25,14.9941413 L16.25,5.00585866 C16.25,4.31167423 15.6881336,3.75 14.9941413,3.75 L5.00585866,3.75 C4.31167423,3.75 3.75,4.31186644 3.75,5.00585866 Z M2.25,5.00585866 C2.25,3.48355418 3.4831322,2.25 5.00585866,2.25 L14.9941413,2.25 C16.5164458,2.25 17.75,3.4831322 17.75,5.00585866 L17.75,14.9941413 C17.75,16.5164458 16.5168678,17.75 14.9941413,17.75 L5.00585866,17.75 C3.48355418,17.75 2.25,16.5168678 2.25,14.9941413 L2.25,5.00585866 Z" id="Rectangle-8" fill="#1D74F5" fill-rule="nonzero"></path>
            <path d="M7.5,9.75 C6.25735931,9.75 5.25,8.74264069 5.25,7.5 C5.25,6.25735931 6.25735931,5.25 7.5,5.25 C8.74264069,5.25 9.75,6.25735931 9.75,7.5 C9.75,8.74264069 8.74264069,9.75 7.5,9.75 Z M7.5,8.25 C7.91421356,8.25 8.25,7.91421356 8.25,7.5 C8.25,7.08578644 7.91421356,6.75 7.5,6.75 C7.08578644,6.75 6.75,7.08578644 6.75,7.5 C6.75,7.91421356 7.08578644,8.25 7.5,8.25 Z" id="Oval-4" fill="#1D74F5" fill-rule="nonzero"></path>
            <polygon id="Path-2" fill="#1D74F5" fill-rule="nonzero" points="7.07225957 12.9163101 9.85108036 14.8182261 14.0827401 10.8149106 16.4130159 12.5369513 17.3044896 11.3306037 13.9641985 8.86217609 9.69947618 12.89677 6.93177209 11.0024627 2.71642406 14.9039559 3.73531014 16.004806"></polygon>
        </g>
    </g>
</svg>