<?xml version="1.0" encoding="UTF-8"?>
<svg width="20px" height="20px" viewBox="0 0 20 20" version="1.1" xmlns="http://www.w3.org/2000/svg" xmlns:xlink="http://www.w3.org/1999/xlink">
    <!-- Generator: Sketch 47.1 (45422) - http://www.bohemiancoding.com/sketch -->
    <title>20x20/locaiton--dark</title>
    <desc>Created with Sketch.</desc>
    <defs></defs>
    <g id="Symbols" stroke="none" stroke-width="1" fill="none" fill-rule="evenodd">
        <g id="20x20/locaiton--dark">
            <g id="24x24/locaiton--grey" transform="translate(5.000000, 3.000000)"></g>
            <path d="M10.4789968,17.5771153 L10,17.9746752 L9.52100321,17.5771153 C9.47445061,17.5384774 9.39367812,17.468811 9.28353674,17.369721 C9.10375527,17.2079784 8.9044283,17.0201045 8.6904022,16.8076695 C8.08092817,16.2027264 7.47202864,15.5191569 6.9025566,14.7687473 C5.25010104,12.5912592 4.25,10.2978106 4.25,7.97263622 C4.25,4.81118736 6.82528125,2.25 10,2.25 C13.1747188,2.25 15.75,4.81118736 15.75,7.97263622 C15.75,10.2978106 14.749899,12.5912592 13.0974434,14.7687473 C12.5279714,15.5191569 11.9190718,16.2027264 11.3095978,16.8076695 C11.0955717,17.0201045 10.8962447,17.2079784 10.7164633,17.369721 C10.6063219,17.468811 10.5255494,17.5384774 10.4789968,17.5771153 Z M10.2529022,15.7430596 C10.8153032,15.1848395 11.3782786,14.5528258 11.9025566,13.8619697 C13.375101,11.9215557 14.25,9.91522264 14.25,7.97263622 C14.25,5.64146278 12.3481287,3.75 10,3.75 C7.65187126,3.75 5.75,5.64146278 5.75,7.97263622 C5.75,9.91522264 6.62489896,11.9215557 8.0974434,13.8619697 C8.62172136,14.5528258 9.18469683,15.1848395 9.7470978,15.7430596 C9.83729995,15.8325911 9.92185693,15.9147868 10,15.9893725 C10.0781431,15.9147868 10.1627,15.8325911 10.2529022,15.7430596 Z" id="Oval" fill="#1D74F5" fill-rule="nonzero"></path>
            <path d="M10,10.75 C8.48121694,10.75 7.25,9.51878306 7.25,8 C7.25,6.48121694 8.48121694,5.25 10,5.25 C11.5187831,5.25 12.75,6.48121694 12.75,8 C12.75,9.51878306 11.5187831,10.75 10,10.75 Z M10,9.25 C10.6903559,9.25 11.25,8.69035594 11.25,8 C11.25,7.30964406 10.6903559,6.75 10,6.75 C9.30964406,6.75 8.75,7.30964406 8.75,8 C8.75,8.69035594 9.30964406,9.25 10,9.25 Z" id="Oval" fill="#1D74F5" fill-rule="nonzero"></path>
        </g>
    </g>
</svg>