<?xml version="1.0" encoding="UTF-8"?>
<svg width="20px" height="20px" viewBox="0 0 20 20" version="1.1" xmlns="http://www.w3.org/2000/svg" xmlns:xlink="http://www.w3.org/1999/xlink">
    <!-- Generator: Sketch 47.1 (45422) - http://www.bohemiancoding.com/sketch -->
    <title>20x20/video--dark</title>
    <desc>Created with Sketch.</desc>
    <defs></defs>
    <g id="Symbols" stroke="none" stroke-width="1" fill="none" fill-rule="evenodd">
        <g id="20x20/video--dark" fill-rule="nonzero" fill="#1D74F5">
            <g id="24x24/video--grey">
                <path d="M3.75,7.75 L3.75,15.25 L12.25,15.25 L12.25,7.75 L3.75,7.75 Z M13.75,6.25 L13.75,16.75 L2.25,16.75 L2.25,6.25 L13.75,6.25 Z" id="Rectangle"></path>
                <path d="M13.75,13.0776431 L17.25,14.2140346 L17.25,9.78447755 L13.75,10.9208691 L13.75,13.0776431 Z M16.816159,8.34825467 C17.8266758,8.02015675 18.75,8.68935903 18.75,9.75282741 L18.75,14.2456848 C18.75,15.307855 17.8264557,15.9782839 16.816159,15.6502575 L12.25,14.167702 L12.25,9.8308102 L16.816159,8.34825467 Z" id="Rectangle-3"></path>
                <polygon id="Line" points="4.75 4.75 11.25 4.75 11.25 3.25 4.75 3.25"></polygon>
            </g>
        </g>
    </g>
</svg>