<?xml version="1.0" encoding="UTF-8"?>
<svg width="20px" height="20px" viewBox="0 0 20 20" version="1.1" xmlns="http://www.w3.org/2000/svg" xmlns:xlink="http://www.w3.org/1999/xlink">
    <!-- Generator: Sketch 47.1 (45422) - http://www.bohemiancoding.com/sketch -->
    <title>20x20/volume--dark</title>
    <desc>Created with Sketch.</desc>
    <defs></defs>
    <g id="Symbols" stroke="none" stroke-width="1" fill="none" fill-rule="evenodd">
        <g id="20x20/volume--dark">
            <g id="20x20/mute--dark">
                <rect id="Rectangle-4" x="0" y="0" width="20" height="20"></rect>
                <g id="Group" transform="translate(5.000000, 2.000000)" fill="#1D74F5">
                    <path d="M5,1.5 C3.8954305,1.5 3,2.3954305 3,3.5 L3,6.5 C3,7.6045695 3.8954305,8.5 5,8.5 C6.1045695,8.5 7,7.6045695 7,6.5 L7,3.5 C7,2.3954305 6.1045695,1.5 5,1.5 Z M5,-3.5971226e-14 C6.93299662,-3.63263022e-14 8.5,1.56700338 8.5,3.5 L8.5,6.5 C8.5,8.43299662 6.93299662,10 5,10 C3.06700338,10 1.5,8.43299662 1.5,6.5 L1.5,3.5 C1.5,1.56700338 3.06700338,-3.56161498e-14 5,-3.5971226e-14 Z" id="Rectangle-9" fill-rule="nonzero"></path>
                    <polygon id="Path-2" fill-rule="nonzero" points="4.25 12 4.25 15 5.75 15 5.75 12"></polygon>
                    <rect id="Rectangle-10" x="2" y="15" width="6" height="1"></rect>
                    <path d="M-0.749943816,6.00918002 C-0.696303648,10.3912103 1.26935445,12.75 5,12.75 C8.73064555,12.75 10.6963036,10.3912103 10.7499438,6.00918002 L9.25005618,5.99081998 C9.20576883,9.60878972 7.8380936,11.25 5,11.25 C2.1619064,11.25 0.794231165,9.60878972 0.749943816,5.99081998 L-0.749943816,6.00918002 Z" id="Path-3" fill-rule="nonzero"></path>
                </g>
            </g>
        </g>
    </g>
</svg>